<svg xmlns="http://www.w3.org/2000/svg" width="1200" height="760" viewBox="0 0 1200 760"><rect width="1200" height="760" fill="#ffffff"/><text x="600" y="60" text-anchor="middle" font-family="Arial" font-size="38" font-weight="700" fill="#183153">Transform trong Inspector</text><rect x="210" y="110" width="780" height="560" rx="22" fill="#f7f9fc" stroke="#c8d2e1" stroke-width="3"/><rect x="210" y="110" width="780" height="72" rx="22" fill="#e9eef6"/><text x="255" y="157" font-family="Arial" font-size="28" font-weight="700" fill="#1f2937">Inspector</text><rect x="260" y="215" width="680" height="390" rx="18" fill="#ffffff" stroke="#d6dee9" stroke-width="2"/><text x="300" y="265" font-family="Arial" font-size="30" font-weight="700" fill="#1f2937">Transform</text><text x="300" y="330" font-family="Arial" font-size="25" font-weight="700" fill="#2563eb">Position</text><text x="470" y="330" font-family="Arial" font-size="24" fill="#374151">X  1.0</text><text x="615" y="330" font-family="Arial" font-size="24" fill="#374151">Y  2.0</text><text x="760" y="330" font-family="Arial" font-size="24" fill="#374151">Z  3.0</text><text x="300" y="410" font-family="Arial" font-size="25" font-weight="700" fill="#16a34a">Rotation</text><text x="470" y="410" font-family="Arial" font-size="24" fill="#374151">X  0</text><text x="615" y="410" font-family="Arial" font-size="24" fill="#374151">Y  90</text><text x="760" y="410" font-family="Arial" font-size="24" fill="#374151">Z  0</text><text x="300" y="490" font-family="Arial" font-size="25" font-weight="700" fill="#d97706">Scale</text><text x="470" y="490" font-family="Arial" font-size="24" fill="#374151">X  1</text><text x="615" y="490" font-family="Arial" font-size="24" fill="#374151">Y  1</text><text x="760" y="490" font-family="Arial" font-size="24" fill="#374151">Z  1</text><line x1="860" y1="325" x2="1040" y2="275" stroke="#2563eb" stroke-width="4"/><text x="1050" y="270" font-family="Arial" font-size="23" fill="#2563eb">vị trí</text><line x1="860" y1="405" x2="1040" y2="405" stroke="#16a34a" stroke-width="4"/><text x="1050" y="412" font-family="Arial" font-size="23" fill="#16a34a">hướng quay</text><line x1="860" y1="485" x2="1040" y2="535" stroke="#d97706" stroke-width="4"/><text x="1050" y="545" font-family="Arial" font-size="23" fill="#d97706">tỉ lệ</text><rect x="270" y="625" width="660" height="70" rx="16" fill="#eef6ff"/><text x="600" y="670" text-anchor="middle" font-family="Arial" font-size="23" fill="#183153">Transform là nơi Unity lưu ba thay đổi cốt lõi của một đối tượng.</text></svg>