<svg xmlns="http://www.w3.org/2000/svg" width="1200" height="780" viewBox="0 0 1200 780"><rect width="1200" height="780" fill="#ffffff"/><text x="600" y="58" text-anchor="middle" font-family="Arial" font-size="38" font-weight="700" fill="#183153">Quan hệ cha-con trong Hierarchy</text><rect x="120" y="110" width="610" height="560" rx="22" fill="#f8fafc" stroke="#cbd5e1" stroke-width="3"/><rect x="120" y="110" width="610" height="70" rx="22" fill="#e9eef6"/><text x="160" y="155" font-family="Arial" font-size="28" font-weight="700" fill="#1f2937">Hierarchy</text><text x="175" y="240" font-family="Arial" font-size="26" font-weight="700" fill="#111827">▼ Character</text><text x="230" y="300" font-family="Arial" font-size="25" fill="#111827">▼ Hips</text><text x="285" y="360" font-family="Arial" font-size="25" fill="#111827">├─ Spine</text><text x="285" y="420" font-family="Arial" font-size="25" fill="#111827">└─ LeftUpperLeg</text><text x="340" y="480" font-family="Arial" font-size="25" fill="#111827">└─ LeftLowerLeg</text><text x="395" y="540" font-family="Arial" font-size="25" fill="#111827">└─ LeftFoot</text><rect x="805" y="220" width="260" height="90" rx="18" fill="#e0f2fe" stroke="#38bdf8" stroke-width="2"/><text x="935" y="258" text-anchor="middle" font-family="Arial" font-size="24" font-weight="700" fill="#0369a1">Parent</text><text x="935" y="288" text-anchor="middle" font-family="Arial" font-size="21" fill="#334155">đối tượng phía trên</text><rect x="805" y="380" width="260" height="90" rx="18" fill="#dcfce7" stroke="#4ade80" stroke-width="2"/><text x="935" y="418" text-anchor="middle" font-family="Arial" font-size="24" font-weight="700" fill="#15803d">Child</text><text x="935" y="448" text-anchor="middle" font-family="Arial" font-size="21" fill="#334155">đối tượng nằm dưới cha</text><line x1="730" y1="265" x2="805" y2="265" stroke="#38bdf8" stroke-width="4"/><line x1="730" y1="425" x2="805" y2="425" stroke="#4ade80" stroke-width="4"/><rect x="760" y="550" width="340" height="100" rx="18" fill="#fff7ed" stroke="#fb923c" stroke-width="2"/><text x="930" y="590" text-anchor="middle" font-family="Arial" font-size="22" font-weight="700" fill="#c2410c">Ý nghĩa thực hành</text><text x="930" y="622" text-anchor="middle" font-family="Arial" font-size="20" fill="#334155">Khi cha thay đổi, các con bên dưới</text><text x="930" y="648" text-anchor="middle" font-family="Arial" font-size="20" fill="#334155">có thể thay đổi theo.</text></svg>